<svg width="100%" height="100%" viewBox="0 0 2606 797" version="1.1"
    xmlns="http://www.w3.org/2000/svg" xmlns:xlink="http://www.w3.org/1999/xlink"
    xml:space="preserve" xmlns:serif="http://www.serif.com/"
    style="fill-rule:evenodd;clip-rule:evenodd;stroke-linejoin:round;stroke-miterlimit:2;">
    <g id="Ebene-1" serif:id="Ebene 1">
        <path d="M448.192,176.166L200.308,176.129C190.242,176.129 176.621,177.62 161.537,181.475C96.579,198.058 0,254.045 0,381.141C0,525.812 135.258,583.845 191.592,583.845L276.992,583.941L276.992,486.133L201.367,486.116C142.688,486.116 95.117,438.554 95.117,379.87C95.117,324.095 138.221,278.337 192.863,273.937C192.896,273.916 193.008,273.845 193.008,273.845L350.196,273.62L350.196,640.17L350.192,640.17C350.192,649.454 342.833,656.958 333.65,657.312L112.729,657.312L56.308,755.137L350.321,755.137C350.329,755.129 350.342,755.12 350.354,755.12C350.496,755.12 350.633,755.141 350.771,755.141C404.196,755.141 447.563,712.016 448.008,658.645L448.192,176.166Z" style="fill:rgb(140,98,164);fill-rule:nonzero;"/>
        <path d="M673.432,175.721C630.24,175.721 525.961,207.371 487.665,302.321C478.59,324.808 473.182,350.808 473.182,380.796C473.182,515.15 589.665,575.096 651.407,582.963C656.144,583.558 660.586,583.892 664.611,583.892L1079.33,583.942L1079.57,290.904L1079.73,290.904C1079.73,281.404 1087.43,273.704 1096.93,273.704L1096.93,273.704L1096.93,273.633C1120.26,273.704 1256.06,273.621 1256.06,273.621L1256.27,583.846L1512.47,583.767C1522.91,583.767 1537.05,582.729 1551.53,578.542C1589.1,567.675 1635.67,542.079 1667.59,498.754C1674.09,489.921 1679.96,480.346 1685.04,470.013C1697.29,445.1 1704.87,415.804 1704.87,381.65C1704.87,360.463 1702.12,341.329 1697.36,323.95C1686.49,284.413 1664.89,254.321 1639.4,231.975C1616.72,211.496 1592.27,197.542 1569.73,189.271C1548.65,181.246 1528.32,177.971 1513.36,176.792L1426.03,176.696L1426.06,274.133L1512.52,274.304C1565.66,280.167 1607.01,325.167 1607.01,379.871C1607.01,438.554 1559.44,486.117 1500.76,486.117L1353.04,486.133L1353.32,0L1255.12,0L1255.12,175.275L1079.87,175.117C1026.63,175.117 983.394,218.479 982.661,271.583L982.536,486.133L675.028,486.117C616.344,486.117 568.778,438.554 568.778,379.871C568.778,324.45 611.219,279 665.361,274.104L811.015,274.004L744.057,412.654L844.523,412.654L909.207,273.904L909.028,175.792L673.432,175.721Z" style="fill:rgb(140,98,164);fill-rule:nonzero;"/>
        <path d="M2332.15,175.359C2280.56,175.359 2238.17,215.871 2234.93,266.684C2234.62,269.621 2234.42,272.667 2234.42,275.93L2234.42,486.13L1928.91,486.246C1870.23,486.246 1822.66,438.68 1822.66,379.992C1822.66,324.575 1865.1,279.125 1919.24,274.23L2064.89,274.13L1997.88,412.646L2098.48,412.646L2163.09,274.034L2162.91,175.921L1927.32,175.846C1884.13,175.846 1779.84,207.5 1741.55,302.446C1732.47,324.934 1727.07,350.934 1727.07,380.921C1727.07,515.284 1843.55,575.217 1905.29,583.088C1910.03,583.692 1914.47,584.021 1918.5,584.021L2333.43,583.942C2333.43,583.942 2333.47,306.542 2333.47,290.888C2333.47,281.384 2341.17,273.684 2350.67,273.684L2350.67,273.684L2350.67,273.621L2548.99,273.621L2605.82,175.538L2332.15,175.359Z" style="fill:rgb(140,98,164);fill-rule:nonzero;"/>
        <path d="M1159.2,795.84C1158.54,795.178 1158.19,794.328 1158.19,793.311L1158.19,755.136L1120.34,755.136C1119.31,755.136 1118.46,754.807 1117.79,754.123C1117.11,753.465 1116.78,752.619 1116.78,751.59L1116.78,746.961C1116.78,745.932 1117.11,745.086 1117.79,744.415C1118.46,743.744 1119.31,743.419 1120.34,743.419L1158.19,743.419L1158.19,706.161C1158.19,705.036 1158.54,704.161 1159.2,703.544C1159.86,702.923 1160.71,702.619 1161.73,702.619L1166.68,702.619C1167.82,702.619 1168.68,702.923 1169.29,703.544C1169.91,704.161 1170.22,705.036 1170.22,706.161L1170.22,743.419L1208.08,743.419C1209.12,743.419 1209.95,743.744 1210.64,744.415C1211.3,745.086 1211.64,745.932 1211.64,746.961L1211.64,751.59C1211.64,752.619 1211.3,753.465 1210.64,754.123C1209.95,754.807 1209.12,755.136 1208.08,755.136L1170.22,755.136L1170.22,793.311C1170.22,794.328 1169.89,795.178 1169.23,795.84C1168.55,796.523 1167.7,796.848 1166.68,796.848L1161.73,796.848C1160.71,796.848 1159.86,796.523 1159.2,795.84" style="fill:rgb(140,98,164);fill-rule:nonzero;"/>
        <path d="M517.115,754.132C516.556,753.528 516.277,752.762 516.277,751.828L516.277,660.678C516.277,659.657 516.556,658.845 517.115,658.237C517.673,657.637 518.415,657.332 519.348,657.332L576.719,657.332C577.74,657.332 578.552,657.637 579.16,658.237C579.765,658.845 580.065,659.657 580.065,660.678L580.065,665.703C580.065,666.637 579.765,667.382 579.16,667.937C578.552,668.499 577.74,668.778 576.719,668.778L529.119,668.778L529.119,699.903L573.644,699.903C574.669,699.903 575.481,700.207 576.09,700.812C576.694,701.42 576.998,702.232 576.998,703.253L576.998,708.003C576.998,708.928 576.694,709.699 576.09,710.303C575.481,710.912 574.669,711.212 573.644,711.212L529.119,711.212L529.119,743.453L577.835,743.453C578.856,743.453 579.669,743.757 580.277,744.362C580.881,744.97 581.181,745.782 581.181,746.803L581.181,751.828C581.181,752.762 580.856,753.528 580.206,754.132C579.552,754.741 578.76,755.041 577.835,755.041L519.348,755.041C518.415,755.041 517.673,754.741 517.115,754.132" style="fill:rgb(90,104,129);fill-rule:nonzero;"/>
        <path d="M598.352,754.132C597.794,753.528 597.515,752.762 597.515,751.828L597.515,660.541C597.515,659.612 597.794,658.845 598.352,658.237C598.91,657.637 599.652,657.332 600.585,657.332L607.565,657.332C608.494,657.332 609.24,657.637 609.798,658.237C610.356,658.845 610.635,659.612 610.635,660.541L610.635,743.312L657.256,743.312C658.277,743.312 659.094,743.62 659.698,744.22C660.302,744.828 660.606,745.595 660.606,746.524L660.606,751.828C660.606,752.762 660.281,753.528 659.631,754.132C658.977,754.741 658.185,755.041 657.256,755.041L600.585,755.041C599.652,755.041 598.91,754.741 598.352,754.132" style="fill:rgb(90,104,129);fill-rule:nonzero;"/>
        <path d="M673.446,754.132C672.887,753.528 672.608,752.762 672.608,751.828L672.608,660.678C672.608,659.657 672.887,658.845 673.446,658.237C674.004,657.637 674.746,657.332 675.679,657.332L733.05,657.332C734.071,657.332 734.883,657.637 735.492,658.237C736.096,658.845 736.396,659.657 736.396,660.678L736.396,665.703C736.396,666.637 736.096,667.382 735.492,667.937C734.883,668.499 734.071,668.778 733.05,668.778L685.45,668.778L685.45,699.903L729.975,699.903C731,699.903 731.812,700.207 732.421,700.812C733.025,701.42 733.329,702.232 733.329,703.253L733.329,708.003C733.329,708.928 733.025,709.699 732.421,710.303C731.812,710.912 731,711.212 729.975,711.212L685.45,711.212L685.45,743.453L734.167,743.453C735.187,743.453 736,743.757 736.608,744.362C737.212,744.97 737.512,745.782 737.512,746.803L737.512,751.828C737.512,752.762 737.187,753.528 736.537,754.132C735.883,754.741 735.092,755.041 734.167,755.041L675.679,755.041C674.746,755.041 674.004,754.741 673.446,754.132" style="fill:rgb(90,104,129);fill-rule:nonzero;"/>
        <path d="M754.684,754.132C754.125,753.528 753.846,752.762 753.846,751.828L753.846,660.678C753.846,659.657 754.125,658.845 754.684,658.237C755.242,657.637 755.984,657.332 756.917,657.332L763.475,657.332C764.5,657.332 765.313,657.637 765.921,658.237C766.525,658.845 766.83,659.657 766.83,660.678L766.83,695.437L804.65,659.566C806.142,658.078 807.955,657.332 810.096,657.332L817.08,657.332C817.817,657.332 818.48,657.612 819.03,658.17C819.592,658.728 819.871,659.382 819.871,660.124C819.871,660.87 819.634,661.474 819.171,661.937L775.621,704.091L822.1,750.295C822.571,750.853 822.8,751.503 822.8,752.249C822.8,752.995 822.521,753.645 821.959,754.203C821.409,754.757 820.755,755.041 820.009,755.041L812.75,755.041C811.446,755.041 810.421,754.832 809.68,754.412C808.934,753.995 808.142,753.457 807.305,752.807L766.83,713.303L766.83,751.828C766.83,752.762 766.5,753.528 765.85,754.132C765.196,754.741 764.405,755.041 763.475,755.041L756.917,755.041C755.984,755.041 755.242,754.741 754.684,754.132" style="fill:rgb(90,104,129);fill-rule:nonzero;"/>
        <path d="M856.368,754.132C855.76,753.528 855.46,752.762 855.46,751.828L855.46,669.332L828.523,669.332C827.593,669.332 826.823,669.032 826.223,668.428C825.614,667.824 825.314,667.057 825.314,666.124L825.314,660.678C825.314,659.657 825.614,658.845 826.223,658.237C826.823,657.637 827.593,657.332 828.523,657.332L895.527,657.332C896.548,657.332 897.339,657.637 897.898,658.237C898.456,658.845 898.735,659.657 898.735,660.678L898.735,666.124C898.735,667.057 898.431,667.824 897.831,668.428C897.223,669.032 896.456,669.332 895.527,669.332L868.723,669.332L868.723,751.828C868.723,752.762 868.398,753.528 867.748,754.132C867.098,754.741 866.302,755.041 865.377,755.041L858.673,755.041C857.739,755.041 856.977,754.741 856.368,754.132" style="fill:rgb(90,104,129);fill-rule:nonzero;"/>
        <path d="M948.004,704.092C962.054,704.092 969.083,698.184 969.083,686.363C969.083,674.546 962.054,668.638 948.004,668.638L924.554,668.638L924.554,704.092L948.004,704.092ZM912.275,754.134C911.713,753.53 911.438,752.763 911.438,751.83L911.438,660.68C911.438,659.659 911.713,658.846 912.275,658.238C912.833,657.638 913.575,657.33 914.504,657.33L948.567,657.33C959.175,657.33 967.479,659.821 973.479,664.796C979.483,669.78 982.479,677.013 982.479,686.505C982.479,693.58 980.717,699.392 977.179,703.955C973.642,708.517 968.713,711.675 962.383,713.442L983.879,750.713C984.158,751.271 984.296,751.784 984.296,752.25C984.296,752.992 984.021,753.646 983.463,754.2C982.9,754.759 982.25,755.042 981.504,755.042L975.363,755.042C973.967,755.042 972.875,754.713 972.083,754.063C971.292,753.413 970.571,752.48 969.921,751.271L949.4,715.538L924.554,715.538L924.554,751.83C924.554,752.763 924.229,753.53 923.579,754.134C922.925,754.738 922.133,755.042 921.204,755.042L914.504,755.042C913.575,755.042 912.833,754.738 912.275,754.134" style="fill:rgb(90,104,129);fill-rule:nonzero;"/>
        <path d="M1052.14,738.08C1056.6,733.568 1059.02,726.66 1059.39,717.351C1059.58,711.772 1059.68,708.047 1059.68,706.189C1059.68,704.139 1059.58,700.418 1059.39,695.018C1059.02,685.718 1056.6,678.785 1052.14,674.222C1047.67,669.664 1041.71,667.38 1034.27,667.38C1026.83,667.38 1020.85,669.664 1016.33,674.222C1011.82,678.785 1009.43,685.718 1009.15,695.018C1009.05,697.718 1009,701.439 1009,706.189C1009,710.839 1009.05,714.56 1009.15,717.351C1009.43,726.66 1011.8,733.568 1016.27,738.08C1020.73,742.597 1026.73,744.851 1034.27,744.851C1041.71,744.851 1047.67,742.597 1052.14,738.08M1006.22,746.872C999.609,740.501 996.117,730.889 995.747,718.047C995.651,715.255 995.609,711.305 995.609,706.189C995.609,701.068 995.651,697.164 995.747,694.46C996.117,681.805 999.726,672.218 1006.56,665.705C1013.4,659.193 1022.64,655.935 1034.27,655.935C1045.9,655.935 1055.11,659.193 1061.91,665.705C1068.7,672.218 1072.28,681.805 1072.65,694.46C1072.84,699.86 1072.93,703.768 1072.93,706.189C1072.93,708.514 1072.84,712.468 1072.65,718.047C1072.28,730.889 1068.82,740.501 1062.26,746.872C1055.7,753.251 1046.36,756.435 1034.27,756.435C1022.18,756.435 1012.82,753.251 1006.22,746.872" style="fill:rgb(90,104,129);fill-rule:nonzero;"/>
        <path d="M1257.11,754.132C1256.54,753.528 1256.27,752.762 1256.27,751.828L1256.27,660.678C1256.27,659.657 1256.54,658.845 1257.11,658.237C1257.66,657.637 1258.41,657.332 1259.34,657.332L1316.71,657.332C1317.73,657.332 1318.55,657.637 1319.15,658.237C1319.76,658.845 1320.06,659.657 1320.06,660.678L1320.06,665.703C1320.06,666.637 1319.76,667.382 1319.15,667.937C1318.55,668.499 1317.73,668.778 1316.71,668.778L1269.11,668.778L1269.11,699.903L1313.64,699.903C1314.66,699.903 1315.47,700.207 1316.08,700.812C1316.68,701.42 1316.99,702.232 1316.99,703.253L1316.99,708.003C1316.99,708.928 1316.68,709.699 1316.08,710.303C1315.47,710.912 1314.66,711.212 1313.64,711.212L1269.11,711.212L1269.11,743.453L1317.83,743.453C1318.85,743.453 1319.66,743.757 1320.27,744.362C1320.87,744.97 1321.17,745.782 1321.17,746.803L1321.17,751.828C1321.17,752.762 1320.85,753.528 1320.2,754.132C1319.55,754.741 1318.75,755.041 1317.83,755.041L1259.34,755.041C1258.41,755.041 1257.66,754.741 1257.11,754.132" style="fill:rgb(90,104,129);fill-rule:nonzero;"/>
        <path d="M1338.35,754.132C1337.78,753.528 1337.51,752.762 1337.51,751.828L1337.51,660.678C1337.51,659.657 1337.78,658.845 1338.35,658.237C1338.9,657.637 1339.65,657.332 1340.58,657.332L1346.72,657.332C1347.65,657.332 1348.35,657.52 1348.81,657.887C1349.28,658.262 1349.74,658.728 1350.21,659.282L1396.97,731.307L1396.97,660.678C1396.97,659.657 1397.27,658.845 1397.88,658.237C1398.48,657.637 1399.25,657.332 1400.18,657.332L1406.46,657.332C1407.48,657.332 1408.3,657.637 1408.9,658.237C1409.51,658.845 1409.81,659.657 1409.81,660.678L1409.81,751.691C1409.81,752.624 1409.51,753.412 1408.9,754.062C1408.3,754.716 1407.53,755.041 1406.6,755.041L1400.32,755.041C1398.73,755.041 1397.62,754.391 1396.97,753.087L1350.21,681.757L1350.21,751.828C1350.21,752.762 1349.9,753.528 1349.3,754.132C1348.69,754.741 1347.93,755.041 1347,755.041L1340.58,755.041C1339.65,755.041 1338.9,754.741 1338.35,754.132" style="fill:rgb(90,104,129);fill-rule:nonzero;"/>
        <path d="M1431.87,754.132C1431.3,753.528 1431.03,752.762 1431.03,751.828L1431.03,660.678C1431.03,659.657 1431.3,658.845 1431.87,658.237C1432.42,657.637 1433.16,657.332 1434.09,657.332L1491.46,657.332C1492.49,657.332 1493.3,657.637 1493.91,658.237C1494.51,658.845 1494.82,659.657 1494.82,660.678L1494.82,665.703C1494.82,666.637 1494.51,667.382 1493.91,667.937C1493.3,668.499 1492.49,668.778 1491.46,668.778L1443.87,668.778L1443.87,699.903L1488.39,699.903C1489.42,699.903 1490.23,700.207 1490.84,700.812C1491.44,701.42 1491.74,702.232 1491.74,703.253L1491.74,708.003C1491.74,708.928 1491.44,709.699 1490.84,710.303C1490.23,710.912 1489.42,711.212 1488.39,711.212L1443.87,711.212L1443.87,743.453L1492.58,743.453C1493.6,743.453 1494.42,743.757 1495.02,744.362C1495.63,744.97 1495.93,745.782 1495.93,746.803L1495.93,751.828C1495.93,752.762 1495.61,753.528 1494.96,754.132C1494.3,754.741 1493.51,755.041 1492.58,755.041L1434.09,755.041C1433.16,755.041 1432.42,754.741 1431.87,754.132" style="fill:rgb(90,104,129);fill-rule:nonzero;"/>
        <path d="M1548.83,704.092C1562.88,704.092 1569.91,698.184 1569.91,686.363C1569.91,674.546 1562.88,668.638 1548.83,668.638L1525.38,668.638L1525.38,704.092L1548.83,704.092ZM1513.1,754.134C1512.54,753.53 1512.27,752.763 1512.27,751.83L1512.27,660.68C1512.27,659.659 1512.54,658.846 1513.1,658.238C1513.66,657.638 1514.4,657.33 1515.33,657.33L1549.39,657.33C1560,657.33 1568.31,659.821 1574.31,664.796C1580.31,669.78 1583.31,677.013 1583.31,686.505C1583.31,693.58 1581.55,699.392 1578.01,703.955C1574.47,708.517 1569.54,711.675 1563.21,713.442L1584.71,750.713C1584.99,751.271 1585.12,751.784 1585.12,752.25C1585.12,752.992 1584.85,753.646 1584.29,754.2C1583.73,754.759 1583.08,755.042 1582.33,755.042L1576.19,755.042C1574.8,755.042 1573.7,754.713 1572.91,754.063C1572.12,753.413 1571.4,752.48 1570.75,751.271L1550.23,715.538L1525.38,715.538L1525.38,751.83C1525.38,752.763 1525.06,753.53 1524.41,754.134C1523.75,754.738 1522.96,755.042 1522.03,755.042L1515.33,755.042C1514.4,755.042 1513.66,754.738 1513.1,754.134" style="fill:rgb(90,104,129);fill-rule:nonzero;"/>
        <path d="M1607.32,746.385C1600.62,739.69 1597.04,730.615 1596.58,719.169C1596.48,716.377 1596.44,712.002 1596.44,706.044C1596.44,699.998 1596.48,695.623 1596.58,692.927C1596.94,681.573 1600.5,672.569 1607.25,665.919C1614,659.265 1623.42,655.935 1635.52,655.935C1643.7,655.935 1650.64,657.423 1656.32,660.402C1661.99,663.381 1666.27,666.944 1669.16,671.081C1672.04,675.223 1673.58,679.06 1673.76,682.594L1673.76,682.877C1673.76,683.623 1673.46,684.252 1672.86,684.76C1672.25,685.273 1671.58,685.531 1670.83,685.531L1663.02,685.531C1662.18,685.531 1661.55,685.344 1661.13,684.969C1660.71,684.598 1660.32,683.902 1659.94,682.877C1658.45,678.502 1655.71,674.827 1651.71,671.848C1647.7,668.869 1642.31,667.381 1635.52,667.381C1627.7,667.381 1621.56,669.523 1617.1,673.802C1612.62,678.081 1610.25,684.69 1609.98,693.623C1609.88,696.323 1609.84,700.465 1609.84,706.044C1609.84,711.54 1609.88,715.677 1609.98,718.469C1610.25,727.498 1612.62,734.148 1617.1,738.431C1621.56,742.71 1627.7,744.852 1635.52,744.852C1643.42,744.852 1649.76,742.685 1654.5,738.36C1659.25,734.031 1661.62,727.544 1661.62,718.885L1661.62,712.885L1640.26,712.885C1639.33,712.885 1638.56,712.56 1637.96,711.91C1637.35,711.256 1637.05,710.469 1637.05,709.535L1637.05,705.348C1637.05,704.419 1637.35,703.627 1637.96,702.977C1638.56,702.327 1639.33,701.998 1640.26,701.998L1671.53,701.998C1672.55,701.998 1673.37,702.302 1673.97,702.902C1674.58,703.51 1674.88,704.323 1674.88,705.348L1674.88,718.61C1674.88,726.148 1673.32,732.777 1670.2,738.498C1667.09,744.219 1662.55,748.644 1656.6,751.76C1650.64,754.877 1643.61,756.435 1635.52,756.435C1623.42,756.435 1614.02,753.085 1607.32,746.385" style="fill:rgb(90,104,129);fill-rule:nonzero;"/>
        <path d="M1692.61,754.132C1692.04,753.528 1691.77,752.762 1691.77,751.828L1691.77,660.541C1691.77,659.612 1692.04,658.845 1692.61,658.237C1693.16,657.637 1693.91,657.332 1694.84,657.332L1701.82,657.332C1702.84,657.332 1703.63,657.612 1704.19,658.17C1704.75,658.728 1705.03,659.52 1705.03,660.541L1705.03,751.828C1705.03,752.762 1704.72,753.528 1704.12,754.132C1703.52,754.741 1702.75,755.041 1701.82,755.041L1694.84,755.041C1693.91,755.041 1693.16,754.741 1692.61,754.132" style="fill:rgb(90,104,129);fill-rule:nonzero;"/>
        <path d="M1727.22,754.132C1726.66,753.528 1726.38,752.762 1726.38,751.828L1726.38,660.678C1726.38,659.657 1726.66,658.845 1727.22,658.237C1727.78,657.637 1728.52,657.332 1729.45,657.332L1786.82,657.332C1787.85,657.332 1788.66,657.637 1789.27,658.237C1789.87,658.845 1790.17,659.657 1790.17,660.678L1790.17,665.703C1790.17,666.637 1789.87,667.382 1789.27,667.937C1788.66,668.499 1787.85,668.778 1786.82,668.778L1739.23,668.778L1739.23,699.903L1783.75,699.903C1784.78,699.903 1785.59,700.207 1786.19,700.812C1786.8,701.42 1787.1,702.232 1787.1,703.253L1787.1,708.003C1787.1,708.928 1786.8,709.699 1786.19,710.303C1785.59,710.912 1784.78,711.212 1783.75,711.212L1739.23,711.212L1739.23,743.453L1787.94,743.453C1788.96,743.453 1789.78,743.757 1790.38,744.362C1790.99,744.97 1791.29,745.782 1791.29,746.803L1791.29,751.828C1791.29,752.762 1790.96,753.528 1790.31,754.132C1789.66,754.741 1788.87,755.041 1787.94,755.041L1729.45,755.041C1728.52,755.041 1727.78,754.741 1727.22,754.132" style="fill:rgb(90,104,129);fill-rule:nonzero;"/>
        <path d="M1829.88,754.132C1829.28,753.528 1828.98,752.762 1828.98,751.828L1828.98,669.332L1802.04,669.332C1801.11,669.332 1800.34,669.032 1799.74,668.428C1799.13,667.824 1798.83,667.057 1798.83,666.124L1798.83,660.678C1798.83,659.657 1799.13,658.845 1799.74,658.237C1800.34,657.637 1801.11,657.332 1802.04,657.332L1869.04,657.332C1870.06,657.332 1870.85,657.637 1871.41,658.237C1871.97,658.845 1872.25,659.657 1872.25,660.678L1872.25,666.124C1872.25,667.057 1871.94,667.824 1871.34,668.428C1870.74,669.032 1869.97,669.332 1869.04,669.332L1842.24,669.332L1842.24,751.828C1842.24,752.762 1841.91,753.528 1841.26,754.132C1840.61,754.741 1839.82,755.041 1838.89,755.041L1832.19,755.041C1831.25,755.041 1830.49,754.741 1829.88,754.132" style="fill:rgb(90,104,129);fill-rule:nonzero;"/>
        <path d="M1885.79,754.132C1885.23,753.528 1884.95,752.762 1884.95,751.828L1884.95,660.678C1884.95,659.657 1885.23,658.845 1885.79,658.237C1886.35,657.637 1887.09,657.332 1888.02,657.332L1945.39,657.332C1946.41,657.332 1947.23,657.637 1947.83,658.237C1948.43,658.845 1948.74,659.657 1948.74,660.678L1948.74,665.703C1948.74,666.637 1948.43,667.382 1947.83,667.937C1947.23,668.499 1946.41,668.778 1945.39,668.778L1897.79,668.778L1897.79,699.903L1942.32,699.903C1943.34,699.903 1944.15,700.207 1944.76,700.812C1945.36,701.42 1945.67,702.232 1945.67,703.253L1945.67,708.003C1945.67,708.928 1945.36,709.699 1944.76,710.303C1944.15,710.912 1943.34,711.212 1942.32,711.212L1897.79,711.212L1897.79,743.453L1946.5,743.453C1947.53,743.453 1948.34,743.757 1948.94,744.362C1949.55,744.97 1949.85,745.782 1949.85,746.803L1949.85,751.828C1949.85,752.762 1949.53,753.528 1948.88,754.132C1948.23,754.741 1947.43,755.041 1946.5,755.041L1888.02,755.041C1887.09,755.041 1886.35,754.741 1885.79,754.132" style="fill:rgb(90,104,129);fill-rule:nonzero;"/>
        <path d="M1971.84,746.316C1965.37,739.57 1961.9,730.333 1961.44,718.612C1961.34,716.095 1961.3,712.004 1961.3,706.325C1961.3,700.558 1961.34,696.37 1961.44,693.766C1961.9,682.037 1965.37,672.804 1971.84,666.054C1978.31,659.308 1987.73,655.937 2000.11,655.937C2008.38,655.937 2015.41,657.4 2021.18,660.333C2026.95,663.262 2031.3,667.1 2034.23,671.85C2037.16,676.595 2038.77,681.666 2039.05,687.062C2039.05,687.9 2038.75,688.579 2038.14,689.087C2037.54,689.6 2036.82,689.854 2035.98,689.854L2029,689.854C2028.07,689.854 2027.32,689.625 2026.77,689.158C2026.21,688.691 2025.79,687.9 2025.51,686.783C2023.93,679.62 2021.06,674.595 2016.92,671.712C2012.78,668.825 2007.17,667.383 2000.11,667.383C1983.91,667.383 1975.49,676.412 1974.84,694.462C1974.75,696.975 1974.7,700.837 1974.7,706.045C1974.7,711.258 1974.75,715.212 1974.84,717.912C1975.49,735.87 1983.91,744.85 2000.11,744.85C2007.08,744.85 2012.67,743.412 2016.86,740.52C2021.04,737.641 2023.93,732.662 2025.51,725.587C2025.79,724.47 2026.21,723.679 2026.77,723.216C2027.32,722.754 2028.07,722.516 2029,722.516L2035.98,722.516C2036.82,722.516 2037.54,722.775 2038.14,723.287C2038.75,723.8 2039.05,724.47 2039.05,725.308C2038.77,730.708 2037.16,735.779 2034.23,740.52C2031.3,745.27 2026.95,749.108 2021.18,752.037C2015.41,754.97 2008.38,756.437 2000.11,756.437C1987.73,756.437 1978.31,753.062 1971.84,746.316" style="fill:rgb(90,104,129);fill-rule:nonzero;"/>
        <path d="M2055.66,754.132C2055.1,753.528 2054.82,752.762 2054.82,751.828L2054.82,660.678C2054.82,659.657 2055.1,658.845 2055.66,658.237C2056.22,657.637 2056.96,657.332 2057.89,657.332L2064.59,657.332C2065.61,657.332 2066.43,657.637 2067.03,658.237C2067.64,658.845 2067.94,659.657 2067.94,660.678L2067.94,699.487L2116.51,699.487L2116.51,660.678C2116.51,659.657 2116.82,658.845 2117.42,658.237C2118.03,657.637 2118.79,657.332 2119.73,657.332L2126.43,657.332C2127.45,657.332 2128.26,657.637 2128.87,658.237C2129.47,658.845 2129.78,659.657 2129.78,660.678L2129.78,751.828C2129.78,752.762 2129.45,753.528 2128.8,754.132C2128.15,754.741 2127.36,755.041 2126.43,755.041L2119.73,755.041C2118.79,755.041 2118.03,754.741 2117.42,754.132C2116.82,753.528 2116.51,752.762 2116.51,751.828L2116.51,711.628L2067.94,711.628L2067.94,751.828C2067.94,752.762 2067.61,753.528 2066.96,754.132C2066.31,754.741 2065.52,755.041 2064.59,755.041L2057.89,755.041C2056.96,755.041 2056.22,754.741 2055.66,754.132" style="fill:rgb(90,104,129);fill-rule:nonzero;"/>
        <path d="M2151.83,754.132C2151.27,753.528 2150.99,752.762 2150.99,751.828L2150.99,660.678C2150.99,659.657 2151.27,658.845 2151.83,658.237C2152.39,657.637 2153.13,657.332 2154.06,657.332L2160.21,657.332C2161.13,657.332 2161.83,657.52 2162.3,657.887C2162.76,658.262 2163.23,658.728 2163.69,659.282L2210.45,731.307L2210.45,660.678C2210.45,659.657 2210.76,658.845 2211.36,658.237C2211.97,657.637 2212.73,657.332 2213.66,657.332L2219.95,657.332C2220.97,657.332 2221.78,657.637 2222.39,658.237C2222.99,658.845 2223.29,659.657 2223.29,660.678L2223.29,751.691C2223.29,752.624 2222.99,753.412 2222.39,754.062C2221.78,754.716 2221.01,755.041 2220.09,755.041L2213.81,755.041C2212.22,755.041 2211.11,754.391 2210.45,753.087L2163.69,681.757L2163.69,751.828C2163.69,752.762 2163.39,753.528 2162.78,754.132C2162.18,754.741 2161.41,755.041 2160.48,755.041L2154.06,755.041C2153.13,755.041 2152.39,754.741 2151.83,754.132" style="fill:rgb(90,104,129);fill-rule:nonzero;"/>
        <path d="M2245.35,754.132C2244.79,753.528 2244.51,752.762 2244.51,751.828L2244.51,660.541C2244.51,659.612 2244.79,658.845 2245.35,658.237C2245.91,657.637 2246.65,657.332 2247.58,657.332L2254.56,657.332C2255.58,657.332 2256.37,657.612 2256.93,658.17C2257.49,658.728 2257.77,659.52 2257.77,660.541L2257.77,751.828C2257.77,752.762 2257.47,753.528 2256.87,754.132C2256.26,754.741 2255.49,755.041 2254.56,755.041L2247.58,755.041C2246.65,755.041 2245.91,754.741 2245.35,754.132" style="fill:rgb(90,104,129);fill-rule:nonzero;"/>
        <path d="M2279.96,754.132C2279.4,753.528 2279.13,752.762 2279.13,751.828L2279.13,660.678C2279.13,659.657 2279.4,658.845 2279.96,658.237C2280.52,657.637 2281.26,657.332 2282.19,657.332L2288.76,657.332C2289.78,657.332 2290.59,657.637 2291.2,658.237C2291.81,658.845 2292.11,659.657 2292.11,660.678L2292.11,695.437L2329.93,659.566C2331.42,658.078 2333.24,657.332 2335.38,657.332L2342.36,657.332C2343.1,657.332 2343.76,657.612 2344.31,658.17C2344.87,658.728 2345.15,659.382 2345.15,660.124C2345.15,660.87 2344.91,661.474 2344.45,661.937L2300.9,704.091L2347.38,750.295C2347.85,750.853 2348.08,751.503 2348.08,752.249C2348.08,752.995 2347.8,753.645 2347.24,754.203C2346.68,754.757 2346.03,755.041 2345.29,755.041L2338.03,755.041C2336.73,755.041 2335.7,754.832 2334.96,754.412C2334.21,753.995 2333.42,753.457 2332.59,752.807L2292.11,713.303L2292.11,751.828C2292.11,752.762 2291.78,753.528 2291.13,754.132C2290.48,754.741 2289.68,755.041 2288.76,755.041L2282.19,755.041C2281.26,755.041 2280.52,754.741 2279.96,754.132" style="fill:rgb(90,104,129);fill-rule:nonzero;"/>
    </g>
</svg>