<svg width="100%" height="100%" viewBox="0 0 160 160" version="1.1"
    xmlns="http://www.w3.org/2000/svg" xmlns:xlink="http://www.w3.org/1999/xlink"
    xml:space="preserve" xmlns:serif="http://www.serif.com/">
    <g>
        <clipPath id="_clip1">
            <rect x="0" y="0" width="159.241" height="159.244"/>
        </clipPath>
        <g clip-path="url(#_clip1)">
            <g>
                <path d="M79.611,0C35.932,0.006 -0.005,35.952 0,79.631C0.004,123.306 35.944,159.244 79.62,159.244L79.628,159.244C123.304,159.24 159.241,123.3 159.241,79.624C159.241,79.621 159.241,79.618 159.241,79.615C159.239,35.939 123.299,-0 79.623,0C79.619,0 79.615,0 79.611,0" style="fill:rgb(209,0,76);fill-rule:nonzero;"/>
            </g>
            <g>
                <path d="M130.487,80.529C126.671,77.596 120.9,80.777 119.528,82.355C119.141,82.797 120.051,83.688 120.051,83.688C120.051,83.688 122.465,81.647 124.011,82.179C127.089,83.245 123.447,98.968 116.703,100.256C113.455,100.876 115.348,88.123 117.503,80.411C120.207,79.678 122.695,78.306 124.759,76.411C130.327,71.357 130.873,62.937 128.464,61.845C125.797,60.637 120.367,62.688 117.173,67.312C114.714,71.125 112.861,75.296 111.683,79.677C109.903,79.841 108.268,79.753 107.608,79.011C110.235,78.9 111.075,75.524 111.172,74.224C111.283,72.779 110.399,71.431 109.031,70.956C105.587,70.112 102.041,76.088 102.041,76.088L101.908,73.003C100.431,73.561 99.007,74.249 97.652,75.06C97.599,75.273 97.54,75.525 97.54,75.525C97.54,75.525 92.22,78.789 89.731,77.925C88.89,76.965 87.674,76.414 86.397,76.416C82.184,76.399 77.52,81.801 75.981,88.483C74.443,95.164 76.608,100.585 80.82,100.603C85.032,100.62 89.695,95.216 91.236,88.537C91.874,86.056 91.896,83.455 91.301,80.963C92.791,81.344 95.285,79.317 97.12,77.545L95.735,83.8C94.608,88.717 93.609,96.811 94.505,96.507C95.401,96.203 99.86,94.733 99.86,94.733C99.86,94.733 100.041,94.716 100.872,87.252C101.876,78.273 105.257,74.296 105.257,74.296C106.845,72.613 104.591,75.615 105.88,78.501C106.83,80.517 108.954,81.729 111.173,81.52C110.744,83.169 110.365,84.867 110.051,86.6C108.199,96.763 110.317,102.733 116.019,103.171C121.677,103.6 127.575,98.701 130.203,93.571C132.879,88.336 132.979,82.451 130.485,80.533M118.745,76.62C121.287,70.392 122.829,65.299 124.015,64.563C124.711,64.129 125.596,65.449 124.729,68.688C123.793,72.251 121.556,75.337 118.463,77.337C118.556,77.084 118.649,76.843 118.74,76.62M86.149,86.436C85.335,90.24 83.153,93.315 81.287,93.304C79.42,93.293 78.561,90.2 79.377,86.396C80.193,82.592 82.369,79.517 84.241,79.528C86.113,79.539 86.961,82.632 86.148,86.436" style="fill:white;fill-rule:nonzero;"/>
            </g>
            <g>
                <path d="M34.641,87.388C40.552,85.501 43.824,78.635 45.441,74.953C44.728,78.671 43.655,85.189 45.129,84.863C46.784,84.426 48.413,83.896 50.008,83.275C51.603,82.653 50.629,81.86 51.341,75.351C52.151,68.008 55.481,61.084 57.011,61.821C58.793,62.687 53.084,76.819 56.772,79.955C59.839,82.563 62.944,78.984 64.527,77.083C66.616,73.849 68.507,70.491 70.189,67.028C69.169,72.804 68.757,78.571 71.432,77.687C76.337,76.063 79.231,71.785 81.725,66.823C81.125,70.728 81.013,74.331 82.3,74.053C83.957,73.624 85.585,73.093 87.177,72.465C87.625,70.02 87.929,67.55 88.088,65.069C88.993,55.771 92.54,51.232 93.623,51.488C95.693,51.976 89.743,66.465 93.517,69.673C96.584,72.281 99.689,68.704 101.271,66.801C102.489,65.044 103.573,63.198 104.515,61.279C105.161,64.441 106.984,66.52 109.581,66.531C113.793,66.544 118.457,61.144 119.999,54.465C121.54,47.787 119.371,42.359 115.159,42.344C110.947,42.329 106.285,47.732 104.743,54.409C104.417,55.788 104.251,57.2 104.249,58.617C103.144,60.583 101.705,62.544 100.148,63.071C96.757,64.217 99.564,53.804 99.564,53.804C99.564,53.804 100.453,50.139 100.607,49.151C100.757,48.191 100.207,46.768 97.721,46.856C93.869,46.989 88.969,54.056 88.969,54.056L89.403,51.048C88.629,51.19 87.874,51.423 87.155,51.743C86.523,52.008 85.905,52.306 85.303,52.633L83.413,59.343C83.413,59.343 79.936,69.109 76.541,70.117C73.147,71.125 76.064,59.912 76.064,59.912L77.217,54.485C76.344,54.679 75.482,54.923 74.637,55.217C73.912,55.446 73.229,55.793 72.617,56.244C72.005,56.695 72.067,58.244 71.417,61.036C70.884,62.309 66.576,72.284 63.401,73.356C60.008,74.504 62.817,64.091 62.817,64.091C62.817,64.091 63.751,60.267 63.812,59.424C63.875,58.479 63.455,57.052 60.975,57.141C57.131,57.275 52.249,64.292 52.22,64.341C52.353,63.349 53.624,58.456 54.899,53.068C59.083,51.571 63.62,48.297 69.713,42.217C76.304,35.64 79.615,34.453 81.424,35.523C83.233,36.592 83.363,40.268 82.372,43.093C81.712,44.977 79.789,48.153 78.815,48.229L78.913,48.045C79.83,46.587 79.413,44.636 77.98,43.68C76.341,43.157 74.557,44.04 73.98,45.661C73.303,46.877 73.401,48.383 74.229,49.501C74.668,50.004 75.28,50.324 75.944,50.395C78.877,50.705 84.36,48.519 86.505,41.995C88.716,35.275 80.895,28.876 68.828,39.024C60.284,46.209 57.228,47.949 55.919,48.649C56.458,46.578 56.882,44.478 57.187,42.359C55.303,42.447 46.333,42.317 44.668,50.532C44.319,52.257 44.809,52.835 45.127,53.191C45.444,53.547 46.113,53.868 48.013,53.991C48.443,54.017 48.86,54.025 49.267,54.017L46.368,69.901C44.768,72.753 38.004,83.973 35.425,82.071C32.492,79.905 35.205,69.969 37.409,67.537C39.613,65.105 41.143,66.571 41.612,67.725C42.081,68.88 42.644,66.415 41.76,65.423C40.669,64.091 38.879,63.537 37.227,64.02C34.891,64.461 32.541,66.153 30.035,69.879C24.34,78.351 27.28,89.731 34.641,87.388M107.743,52.445C108.556,48.64 110.733,45.565 112.604,45.577C114.475,45.589 115.325,48.68 114.511,52.484C113.696,56.288 111.517,59.365 109.648,59.353C107.779,59.341 106.925,56.249 107.743,52.445M47.5,47.073C49.013,45.145 50.736,46.007 50.36,48.068L49.997,50.063C49.851,50.088 44.445,50.972 47.503,47.073" style="fill:white;fill-rule:nonzero;"/>
            </g>
            <g>
                <path d="M80.284,105.088C68.8,108.075 59.217,114.168 49.449,116.784C39.681,119.4 35.237,115.177 33.976,111.517C33.067,108.872 34.972,103.468 36.412,100.877C37.667,101.824 40.893,102.232 42.145,98.372C43.252,94.963 38.837,94.344 36.344,98.351C36.204,97.484 36.4,96.596 36.893,95.869C38.239,93.368 45.643,89.539 44.979,94.317C44.979,94.317 44.036,101.151 43.597,105.864C43.168,110.475 44.731,110.887 47.312,110.215C51.559,109.107 56.263,100.748 57.528,98.527C56.684,103.688 57.169,107.895 59.913,107.079C64.761,105.641 68.517,101.048 70.635,96.835C72.728,92.672 74.501,83.887 75.109,81.215L75.029,81.224C74.001,81.293 73.008,81.627 72.147,82.193L70.528,89.441C70.476,89.493 68.377,97.963 65.025,98.957C61.673,99.952 64.384,89.185 64.384,89.185L65.264,83.997C65.264,83.997 61.983,84.257 60.687,85.331C60.687,85.331 59.087,89.447 58.875,89.925C54.532,99.539 50.263,104.695 49.885,103.835C48.576,100.853 51.895,89.135 52.303,86.871C49.937,87.455 47.221,88.071 44.761,88.812C40.2,90.188 36.212,92.201 34.98,97.123C34.668,98.099 34.811,99.165 35.369,100.024C32.437,104.875 25.481,118.065 38.6,122.012C51.781,125.965 62.743,113.052 75.371,108.457C102.311,98.656 110.564,116.383 101.785,120.916C101.996,120.431 102.126,119.916 102.171,119.389C102.349,117.275 101.017,115.713 99.197,115.901C97.192,116.309 95.701,118.03 95.585,120.073C95.4,121.635 96.404,123.111 97.925,123.512C100.059,124.248 104.553,123.236 107.441,120.705C117.785,111.639 110.524,97.228 80.285,105.088" style="fill:white;fill-rule:nonzero;"/>
            </g>
            <g>
                <path d="M79.532,11.428C80.692,11.428 81.647,10.473 81.647,9.313C81.647,9.313 81.647,9.31 81.647,9.309C81.647,8.149 80.692,7.195 79.532,7.195C79.532,7.195 79.531,7.195 79.531,7.195C78.371,7.195 77.417,8.149 77.417,9.308C77.417,9.309 77.417,9.313 77.417,9.313C77.417,10.473 78.372,11.428 79.532,11.428" style="fill:white;fill-rule:nonzero;"/>
            </g>
            <g>
                <path d="M68.865,12.267C70.011,12.084 70.804,10.992 70.623,9.847C70.441,8.701 69.349,7.908 68.204,8.089C67.18,8.25 66.418,9.142 66.418,10.178C66.418,10.289 66.427,10.4 66.444,10.509C66.626,11.655 67.719,12.449 68.865,12.267" style="fill:white;fill-rule:nonzero;"/>
            </g>
            <g>
                <path d="M58.459,14.764C59.562,14.405 60.175,13.201 59.817,12.097C59.458,10.994 58.254,10.381 57.151,10.74C56.281,11.022 55.688,11.838 55.688,12.753C55.688,12.975 55.723,13.195 55.792,13.407C56.074,14.276 56.89,14.869 57.805,14.869C58.027,14.869 58.247,14.834 58.459,14.765" style="fill:white;fill-rule:nonzero;"/>
            </g>
            <g>
                <path d="M39.447,134.795C38.509,134.114 37.178,134.324 36.496,135.261C35.814,136.199 36.025,137.532 36.963,138.215C37.902,138.896 39.235,138.685 39.917,137.747C40.597,136.808 40.385,135.476 39.447,134.795" style="fill:white;fill-rule:nonzero;"/>
            </g>
            <g>
                <path d="M48.572,140.383C47.538,139.859 46.257,140.276 45.729,141.308C45.202,142.342 45.619,143.626 46.652,144.155C47.687,144.68 48.971,144.263 49.499,143.229C50.025,142.194 49.607,140.909 48.572,140.383" style="fill:white;fill-rule:nonzero;"/>
            </g>
            <g>
                <path d="M58.46,144.477C57.356,144.119 56.152,144.733 55.793,145.837C55.436,146.941 56.049,148.144 57.152,148.504C57.363,148.573 57.584,148.608 57.806,148.608C58.721,148.608 59.536,148.015 59.819,147.145C59.888,146.934 59.923,146.712 59.923,146.489C59.923,145.575 59.33,144.76 58.46,144.479" style="fill:white;fill-rule:nonzero;"/>
            </g>
            <g>
                <path d="M68.864,146.976C68.755,146.959 68.644,146.95 68.533,146.95C67.496,146.95 66.605,147.712 66.444,148.736C66.427,148.846 66.418,148.956 66.418,149.067C66.418,150.104 67.179,150.995 68.203,151.157C69.35,151.337 70.442,150.541 70.623,149.393C70.803,148.248 70.009,147.157 68.864,146.976" style="fill:white;fill-rule:nonzero;"/>
            </g>
            <g>
                <path d="M79.532,147.816C78.372,147.817 77.418,148.771 77.417,149.931C77.42,151.091 78.374,152.045 79.535,152.047C80.695,152.045 81.649,151.091 81.649,149.931L81.649,149.931C81.649,148.771 80.695,147.816 79.535,147.816C79.534,147.816 79.533,147.816 79.532,147.816" style="fill:white;fill-rule:nonzero;"/>
            </g>
            <g>
                <path d="M90.193,146.976C89.052,147.162 88.264,148.251 88.444,149.393C88.624,150.539 89.714,151.335 90.86,151.157C92.007,150.976 92.803,149.884 92.623,148.736C92.462,147.711 91.57,146.949 90.532,146.949C90.419,146.949 90.305,146.958 90.193,146.976" style="fill:white;fill-rule:nonzero;"/>
            </g>
            <g>
                <path d="M100.603,144.48C99.735,144.762 99.143,145.577 99.143,146.49C99.143,146.713 99.179,146.935 99.248,147.147C99.529,148.016 100.345,148.61 101.259,148.61C101.482,148.61 101.703,148.574 101.915,148.505C102.784,148.223 103.377,147.408 103.377,146.494C103.377,146.271 103.342,146.05 103.273,145.839C102.992,144.969 102.177,144.377 101.264,144.377C101.041,144.377 100.819,144.412 100.607,144.481" style="fill:white;fill-rule:nonzero;"/>
            </g>
            <g>
                <path d="M110.493,140.384C109.786,140.744 109.338,141.474 109.338,142.269C109.338,143.429 110.293,144.384 111.453,144.384C111.787,144.384 112.116,144.305 112.413,144.153C113.121,143.793 113.568,143.063 113.568,142.269C113.568,141.108 112.614,140.154 111.453,140.154C111.12,140.154 110.791,140.233 110.493,140.384" style="fill:white;fill-rule:nonzero;"/>
            </g>
            <g>
                <path d="M119.616,134.797C119.071,135.195 118.748,135.831 118.748,136.505C118.748,137.665 119.703,138.62 120.863,138.62C122.023,138.62 122.978,137.665 122.978,136.505C122.978,136.058 122.836,135.622 122.572,135.26C122.175,134.714 121.539,134.39 120.863,134.39C120.415,134.39 119.978,134.532 119.616,134.797" style="fill:white;fill-rule:nonzero;"/>
            </g>
            <g>
                <path d="M100.607,14.767C100.818,14.835 101.039,14.87 101.261,14.87C102.175,14.87 102.991,14.278 103.273,13.408C103.342,13.196 103.378,12.975 103.378,12.752C103.378,11.839 102.786,11.024 101.917,10.741C100.813,10.386 99.611,10.999 99.251,12.101C98.894,13.206 99.507,14.408 100.611,14.768" style="fill:white;fill-rule:nonzero;"/>
            </g>
            <g>
                <path d="M90.199,12.267C90.309,12.284 90.42,12.293 90.531,12.293C91.568,12.293 92.459,11.532 92.621,10.508C92.802,9.363 92.01,8.272 90.865,8.088C90.755,8.07 90.643,8.061 90.532,8.061C89.495,8.061 88.604,8.823 88.443,9.847C88.425,9.957 88.416,10.069 88.416,10.181C88.416,11.215 89.177,12.105 90.199,12.267" style="fill:white;fill-rule:nonzero;"/>
            </g>
            <g>
                <path d="M48.572,18.861C49.28,18.501 49.728,17.771 49.728,16.977C49.728,16.642 49.648,16.313 49.496,16.015C49.136,15.307 48.406,14.86 47.612,14.86C47.278,14.86 46.948,14.939 46.651,15.091C45.942,15.452 45.494,16.183 45.494,16.978C45.494,17.313 45.573,17.643 45.725,17.941C46.253,18.974 47.537,19.391 48.571,18.865" style="fill:white;fill-rule:nonzero;"/>
            </g>
            <g>
                <path d="M39.448,24.452C40.387,23.771 40.599,22.437 39.917,21.499C39.236,20.56 37.903,20.348 36.964,21.029C36.417,21.427 36.093,22.064 36.093,22.74C36.093,23.187 36.234,23.623 36.497,23.984C36.895,24.531 37.531,24.856 38.208,24.856C38.654,24.856 39.09,24.715 39.451,24.452" style="fill:white;fill-rule:nonzero;"/>
            </g>
            <g>
                <path d="M31.311,31.4C32.13,30.579 32.13,29.23 31.311,28.409C30.914,28.012 30.375,27.789 29.814,27.789C29.253,27.789 28.714,28.012 28.317,28.409C27.498,29.23 27.498,30.579 28.317,31.4C28.714,31.797 29.253,32.021 29.814,32.021C30.375,32.021 30.914,31.797 31.311,31.4" style="fill:white;fill-rule:nonzero;"/>
            </g>
            <g>
                <path d="M21.407,40.007C21.768,40.269 22.203,40.41 22.65,40.41C23.326,40.41 23.964,40.085 24.361,39.537C24.624,39.176 24.766,38.74 24.766,38.293C24.766,37.617 24.442,36.98 23.895,36.583C22.956,35.901 21.622,36.112 20.94,37.051C20.258,37.989 20.469,39.323 21.407,40.005" style="fill:white;fill-rule:nonzero;"/>
            </g>
            <g>
                <path d="M15.925,49.587C16.223,49.739 16.554,49.819 16.889,49.819C17.681,49.819 18.41,49.373 18.771,48.667C18.923,48.369 19.002,48.039 19.002,47.704C19.002,46.909 18.554,46.179 17.845,45.819C17.548,45.667 17.218,45.587 16.884,45.587C16.09,45.587 15.361,46.035 15.001,46.743C14.85,47.04 14.77,47.369 14.77,47.703C14.77,48.497 15.218,49.227 15.925,49.587" style="fill:white;fill-rule:nonzero;"/>
            </g>
            <g>
                <path d="M12.009,59.908C12.221,59.977 12.442,60.012 12.665,60.012C13.579,60.012 14.395,59.419 14.676,58.549C14.745,58.337 14.781,58.115 14.781,57.892C14.781,56.979 14.188,56.164 13.319,55.883C12.215,55.524 11.011,56.136 10.652,57.24C10.583,57.452 10.548,57.673 10.548,57.895C10.548,58.809 11.14,59.624 12.009,59.907" style="fill:white;fill-rule:nonzero;"/>
            </g>
            <g>
                <path d="M9.753,70.712C9.865,70.73 9.978,70.739 10.091,70.739C11.127,70.739 12.018,69.977 12.179,68.953C12.196,68.844 12.205,68.733 12.205,68.622C12.205,67.586 11.443,66.696 10.42,66.535C9.274,66.354 8.183,67.147 8,68.292C7.818,69.437 8.609,70.528 9.753,70.712" style="fill:white;fill-rule:nonzero;"/>
            </g>
            <g>
                <path d="M11.339,79.623C11.339,79.622 11.339,79.621 11.339,79.62C11.339,78.461 10.385,77.508 9.227,77.508C9.226,77.508 9.223,77.508 9.221,77.508C8.061,77.508 7.107,78.463 7.107,79.623C7.107,79.623 7.107,79.623 7.107,79.623C7.107,80.783 8.062,81.739 9.223,81.739C9.224,81.739 9.224,81.739 9.225,81.739C10.385,81.739 11.339,80.785 11.339,79.625C11.339,79.624 11.339,79.624 11.339,79.623" style="fill:white;fill-rule:nonzero;"/>
            </g>
            <g>
                <path d="M12.177,90.285C11.994,89.142 10.903,88.351 9.759,88.532C8.613,88.714 7.818,89.806 7.999,90.952C8.181,92.098 9.274,92.892 10.42,92.711C11.443,92.551 12.205,91.661 12.205,90.625C12.205,90.511 12.196,90.398 12.177,90.285" style="fill:white;fill-rule:nonzero;"/>
            </g>
            <g>
                <path d="M14.676,100.695C14.394,99.825 13.579,99.233 12.666,99.233C12.443,99.233 12.221,99.268 12.009,99.337C11.14,99.619 10.547,100.435 10.547,101.349C10.547,101.571 10.582,101.792 10.651,102.004C10.932,102.874 11.747,103.467 12.661,103.467C12.884,103.467 13.106,103.432 13.317,103.363C14.187,103.081 14.779,102.266 14.779,101.352C14.779,101.129 14.744,100.908 14.675,100.696" style="fill:white;fill-rule:nonzero;"/>
            </g>
            <g>
                <path d="M15.928,109.656C15.22,110.016 14.773,110.746 14.773,111.541C14.773,112.701 15.727,113.655 16.887,113.655C17.221,113.655 17.55,113.577 17.847,113.425C18.555,113.066 19.004,112.336 19.004,111.542C19.004,111.207 18.924,110.878 18.772,110.58C18.412,109.872 17.682,109.425 16.889,109.425C16.555,109.425 16.225,109.504 15.928,109.656" style="fill:white;fill-rule:nonzero;"/>
            </g>
            <g>
                <path d="M21.409,119.24C20.862,119.638 20.538,120.275 20.538,120.952C20.538,122.112 21.493,123.068 22.654,123.068C23.814,123.068 24.77,122.112 24.77,120.952C24.77,120.503 24.627,120.066 24.363,119.704C23.679,118.768 22.347,118.558 21.409,119.24" style="fill:white;fill-rule:nonzero;"/>
            </g>
            <g>
                <path d="M28.323,127.843C27.926,128.239 27.703,128.778 27.703,129.339C27.703,130.499 28.657,131.453 29.817,131.453C30.977,131.453 31.932,130.499 31.932,129.339C31.932,128.778 31.709,128.239 31.312,127.843C30.916,127.446 30.378,127.223 29.817,127.223C29.257,127.223 28.719,127.446 28.323,127.843" style="fill:white;fill-rule:nonzero;"/>
            </g>
            <g>
                <path d="M127.752,127.844C127.356,128.241 127.133,128.779 127.133,129.339C127.133,130.5 128.089,131.455 129.249,131.455C130.41,131.455 131.365,130.5 131.365,129.339C131.365,128.779 131.143,128.241 130.747,127.844C130.35,127.446 129.811,127.221 129.249,127.221C128.687,127.221 128.148,127.446 127.752,127.844" style="fill:white;fill-rule:nonzero;"/>
            </g>
            <g>
                <path d="M137.659,119.241C137.297,118.977 136.86,118.835 136.412,118.835C135.736,118.835 135.099,119.159 134.701,119.707C134.02,120.646 134.232,121.979 135.171,122.661C136.11,123.342 137.443,123.131 138.125,122.193C138.804,121.255 138.594,119.925 137.659,119.241" style="fill:white;fill-rule:nonzero;"/>
            </g>
            <g>
                <path d="M143.14,109.655C142.843,109.503 142.513,109.424 142.18,109.424C141.384,109.424 140.654,109.872 140.293,110.581C140.143,110.877 140.065,111.205 140.065,111.536C140.065,112.333 140.516,113.065 141.227,113.424C142.258,113.948 143.538,113.531 144.064,112.5C144.216,112.202 144.296,111.872 144.296,111.538C144.296,110.744 143.848,110.014 143.14,109.655" style="fill:white;fill-rule:nonzero;"/>
            </g>
            <g>
                <path d="M147.055,99.336C146.843,99.267 146.622,99.232 146.4,99.232C145.485,99.232 144.67,99.825 144.388,100.695C144.319,100.906 144.285,101.126 144.285,101.348C144.285,102.263 144.878,103.08 145.749,103.361C145.961,103.431 146.183,103.466 146.406,103.466C147.32,103.466 148.135,102.873 148.416,102.003C148.486,101.79 148.521,101.568 148.521,101.345C148.521,100.431 147.927,99.616 147.057,99.336" style="fill:white;fill-rule:nonzero;"/>
            </g>
            <g>
                <path d="M149.308,88.531C148.161,88.35 147.069,89.144 146.887,90.291C146.706,91.437 147.499,92.529 148.645,92.711C148.754,92.728 148.865,92.736 148.975,92.736C150.013,92.736 150.905,91.973 151.067,90.948C151.245,89.803 150.452,88.713 149.308,88.531" style="fill:white;fill-rule:nonzero;"/>
            </g>
            <g>
                <path d="M149.844,77.505C149.844,77.505 149.843,77.505 149.843,77.505C148.681,77.505 147.725,78.461 147.725,79.623C147.725,79.623 147.725,79.624 147.725,79.624C147.728,80.785 148.683,81.739 149.844,81.739C151.005,81.737 151.959,80.781 151.959,79.62C151.956,78.461 151.003,77.508 149.844,77.505" style="fill:white;fill-rule:nonzero;"/>
            </g>
            <g>
                <path d="M146.887,68.956C147.069,70.1 148.16,70.892 149.304,70.712C150.451,70.532 151.247,69.439 151.067,68.292C150.884,67.146 149.792,66.353 148.645,66.533C147.622,66.695 146.86,67.587 146.86,68.623C146.86,68.735 146.869,68.846 146.887,68.956" style="fill:white;fill-rule:nonzero;"/>
            </g>
            <g>
                <path d="M144.391,58.551C144.673,59.419 145.488,60.011 146.402,60.011C146.624,60.011 146.846,59.976 147.057,59.907C147.927,59.624 148.52,58.809 148.52,57.894C148.52,57.672 148.485,57.451 148.416,57.24C148.134,56.37 147.318,55.778 146.403,55.778C146.181,55.778 145.961,55.813 145.749,55.881C144.881,56.164 144.29,56.979 144.29,57.892C144.29,58.115 144.326,58.336 144.395,58.548" style="fill:white;fill-rule:nonzero;"/>
            </g>
            <g>
                <path d="M143.14,49.587C143.848,49.226 144.295,48.496 144.295,47.702C144.295,47.368 144.216,47.039 144.064,46.741C143.704,46.034 142.974,45.586 142.181,45.586C141.847,45.586 141.517,45.666 141.22,45.817C140.511,46.177 140.063,46.908 140.063,47.703C140.063,48.038 140.143,48.368 140.296,48.667C140.656,49.374 141.385,49.82 142.179,49.82C142.513,49.82 142.842,49.741 143.14,49.589" style="fill:white;fill-rule:nonzero;"/>
            </g>
            <g>
                <path d="M137.659,40.005C138.597,39.322 138.807,37.988 138.125,37.049C137.442,36.112 136.109,35.901 135.171,36.583C134.231,37.266 134.02,38.6 134.701,39.54C135.385,40.479 136.719,40.69 137.659,40.007" style="fill:white;fill-rule:nonzero;"/>
            </g>
            <g>
                <path d="M130.744,31.401C131.141,31.005 131.364,30.466 131.364,29.905C131.364,29.343 131.141,28.805 130.744,28.408C129.922,27.588 128.572,27.588 127.751,28.408C127.353,28.805 127.13,29.344 127.13,29.905C127.13,30.467 127.353,31.006 127.751,31.403C128.571,32.222 129.92,32.222 130.74,31.403" style="fill:white;fill-rule:nonzero;"/>
            </g>
            <g>
                <path d="M119.619,24.452C119.979,24.714 120.414,24.855 120.859,24.855C121.536,24.855 122.172,24.53 122.569,23.983C123.252,23.044 123.042,21.711 122.104,21.028C121.164,20.348 119.832,20.559 119.148,21.496C118.886,21.857 118.745,22.292 118.745,22.739C118.745,23.416 119.07,24.054 119.619,24.452" style="fill:white;fill-rule:nonzero;"/>
            </g>
            <g>
                <path d="M110.492,18.86C111.526,19.385 112.81,18.967 113.336,17.933C113.488,17.636 113.567,17.306 113.567,16.972C113.567,16.179 113.12,15.45 112.413,15.089C111.379,14.563 110.094,14.98 109.567,16.013C109.415,16.311 109.336,16.64 109.336,16.974C109.336,17.769 109.784,18.499 110.492,18.86" style="fill:white;fill-rule:nonzero;"/>
            </g>
        </g>
    </g>
</svg>