<svg viewBox="0 0 975 188" version="1.1" xmlns="http://www.w3.org/2000/svg"
    xmlns:xlink="http://www.w3.org/1999/xlink" xml:space="preserve"
    xmlns:serif="http://www.serif.com/"
    style="fill-rule:evenodd;clip-rule:evenodd;stroke-linejoin:round;stroke-miterlimit:2;">
    <g>
        <path d="M59.896,77.217L1.146,187.433L165.029,187.333L214.254,68.087L59.896,77.217Z" style="fill:rgb(187,189,192);fill-rule:nonzero;"/>
        <path d="M41.688,70.517L0,187.433L160.429,163.367L191.471,37.642L41.688,70.517Z" style="fill:rgb(255,221,79);fill-rule:nonzero;"/>
        <path d="M47.075,54.187L168.479,5.217L168.767,1.154L45.658,50.821C21.346,61.513 19.062,78.487 19,79.108L14.238,106.683L41.521,95.779L42.125,91.608L18.946,100.871L22.608,79.638C22.621,79.471 24.7,64.025 47.075,54.187Z" style="fill:rgb(35,31,32);fill-rule:nonzero;"/>
        <path d="M111.067,49.975C102.558,40.958 84.533,51.05 83.767,51.479C59.929,65.162 60.225,84.75 60.263,85.454L60.1,89.196L63.817,87.721L63.908,85.475C63.908,85.292 63.617,67.25 85.571,54.654C90.075,52.096 102.967,46.717 108.512,52.575C108.604,52.654 116.358,59.917 104.408,75.417C104.358,75.5 99.396,83.062 87.779,89.679L87.4,94.042C101.421,86.721 107.242,77.763 107.404,77.5C121.304,59.492 111.383,50.254 111.067,49.975Z" style="fill:rgb(35,31,32);fill-rule:nonzero;"/>
        <path d="M83.558,109.054C82.85,109.258 65.863,114.171 54.821,134.596C54.554,135.104 48.371,147.5 55.033,156.479C55.538,157.3 57.971,160.629 64.612,161.538L4.808,182.038L11.75,142.338C11.779,142.163 14.779,124.742 39.029,112.846L39.654,108.542L37.604,109.475C11.342,122.296 8.258,141.004 8.146,141.75L0.154,187.5L79.596,160.25L80.267,156.062C62.413,161.346 58.196,154.662 58.175,154.612L58.017,154.371C52.642,147.213 58.029,136.342 58.058,136.275C68.304,117.329 84.379,112.613 84.663,112.525L85.317,112.292L85.658,108.296L83.558,109.054Z" style="fill:rgb(35,31,32);fill-rule:nonzero;"/>
        <path d="M155.296,130.171L127.667,139.658L127.192,143.683L158.775,132.842L163.808,60.833L160.046,62.25L155.296,130.171Z" style="fill:rgb(35,31,32);fill-rule:nonzero;"/>
        <path d="M259.733,105.379C253.846,105.379 247.987,106.246 242.312,107.958L242.058,108.038L241.392,113.108L242.079,112.792C247.375,110.338 253.533,109.096 260.371,109.096C264.675,109.096 274.696,109.942 274.696,117.754C274.696,124.946 265.988,127.237 256.771,129.658C246.154,132.45 234.121,135.617 234.121,147.225C234.121,151.362 235.925,160.988 252.688,160.988C257.737,160.988 261.783,160.587 265.8,159.696L266.071,159.633L267.004,154.708L266.321,154.946C261.85,156.508 257.567,157.271 253.217,157.271C249.887,157.271 239.004,156.546 239.004,147.225C239.004,138.262 249.087,135.483 258.837,132.792C265.183,131.046 271.192,129.392 274.437,126.113C274.358,127.6 274.271,129.721 274.167,132.3C273.862,139.737 273.396,150.971 272.558,159.462L272.512,159.917L277.767,159.917L277.767,159.5C277.767,147.271 278.362,136.992 278.792,129.483C279.054,124.921 279.263,121.317 279.263,118.712C279.263,106.758 268.117,105.379 259.733,105.379Z" style="fill:rgb(35,31,32);fill-rule:nonzero;"/>
        <path d="M329.796,107.312C325.679,106.013 321.096,105.375 315.792,105.375C296.587,105.375 289.75,120.429 289.75,134.512C289.75,151.087 299.083,160.983 314.721,160.983C319.204,160.983 323.392,160.562 327.512,159.692L327.787,159.638L328.712,154.738L328.058,154.937C323.396,156.337 319.321,157.267 314.613,157.267C302.108,157.267 294.637,148.842 294.637,134.729C294.637,118.437 302.308,109.092 315.683,109.092C320.783,109.092 325.354,110.35 329.975,111.746L330.583,111.925L330.05,107.396L329.796,107.312Z" style="fill:rgb(35,31,32);fill-rule:nonzero;"/>
        <path d="M350.429,130.258C355.017,125.8 359.737,121.338 364.308,117.021C367.787,113.738 371.262,110.458 374.696,107.162L375.446,106.446L368.883,106.446L368.754,106.579C362.954,112.967 356.588,119.004 350.429,124.842C348.729,126.454 347.029,128.071 345.333,129.692C345.804,114.958 346.408,101.262 347.167,88.308L347.196,87.867L342.071,87.867L342.067,88.279C341.787,112.321 340.879,131.933 340,150.904L339.587,159.913L344.604,159.913L344.608,159.508C344.783,149.483 345.017,139.938 345.304,130.792C347.9,133.633 350.508,136.471 353.125,139.313C359.262,145.967 365.608,152.846 371.638,159.771L371.758,159.913L378.163,159.913L377.483,159.208C367.733,149.125 358.35,138.938 350.429,130.258Z" style="fill:rgb(35,31,32);fill-rule:nonzero;"/>
        <path d="M406.967,109.092C417.683,109.092 423.179,114.704 423.317,125.771L387.396,125.771C389.404,115.467 396.863,109.092 406.967,109.092ZM407.821,105.375C388.621,105.375 381.779,120.429 381.779,134.517C381.779,151.087 391.112,160.983 406.754,160.983C412.667,160.983 417.617,160.287 422.792,158.725L423.037,158.654L423.833,153.733L423.162,153.983C418.863,155.608 413.538,157.271 406.65,157.271C394.142,157.271 386.671,148.842 386.671,134.729C386.671,132.642 386.75,131.092 386.858,129.487L428.208,129.487L428.208,126.613C428.208,113.317 420.588,105.375 407.821,105.375Z" style="fill:rgb(35,31,32);fill-rule:nonzero;"/>
        <path d="M463.783,105.925C462.45,105.542 461.033,105.375 459.183,105.375C451.208,105.375 445.9,108.412 442.596,114.896L443.071,106.446L438.238,106.446L438.267,106.892C438.375,108.583 438.375,110.421 438.375,112.2C438.375,124.354 437.729,136.692 437.108,148.625C436.917,152.246 436.729,155.863 436.558,159.475L436.542,159.913L441.554,159.913L441.554,159.496C441.554,138.988 441.933,125.967 443.879,120.125C446.312,112.929 452.904,109.092 456.725,109.092C459.304,109.092 461.258,109.612 463.146,110.113L464.204,110.392L464.075,106.004L463.783,105.925Z" style="fill:rgb(35,31,32);fill-rule:nonzero;"/>
        <path d="M529.329,105.379C520.854,105.379 514.063,109.35 510.554,116.321C508.729,108.275 501.004,105.379 494.2,105.379C486.587,105.379 479.775,109.488 476.429,115.975L476.917,106.45L472.008,106.45L472.004,106.858C471.75,128.079 471.058,144.304 469.762,159.462L469.721,159.917L474.863,159.917L474.946,154.3C475.187,138.425 475.317,129.679 477.625,121.608C480.333,112.175 490.083,109.096 493.137,109.096C506.013,109.096 506.387,119.071 506.387,120.212C506.387,129.125 505.1,153.825 504.679,159.467L504.646,159.917L509.546,159.917L509.567,159.521C509.833,154.287 509.929,149.404 510.004,145.096C510.187,135.408 510.329,127.758 512.221,121.288C514.317,114.112 520.912,109.096 528.262,109.096C539.513,109.096 541.192,116.329 541.192,120.637C541.192,126.654 539.471,153.9 539.054,159.467L539.025,159.917L544.054,159.917L544.054,159.5C544.054,150.375 544.879,136.167 545.375,127.675C545.6,123.767 545.763,120.942 545.763,120.104C545.763,110.883 539.621,105.379 529.329,105.379Z" style="fill:rgb(35,31,32);fill-rule:nonzero;"/>
        <path d="M578.975,105.379C573.088,105.379 567.233,106.246 561.558,107.958L561.304,108.038L560.637,113.108L561.325,112.792C566.617,110.338 572.775,109.096 579.617,109.096C583.925,109.096 593.937,109.942 593.937,117.754C593.937,124.946 585.233,127.237 576.017,129.658C565.396,132.45 553.367,135.617 553.367,147.225C553.367,151.362 555.171,160.988 571.933,160.988C576.983,160.988 581.025,160.592 585.046,159.696L585.317,159.633L586.25,154.708L585.567,154.946C581.092,156.508 576.808,157.271 572.467,157.271C569.133,157.271 558.25,156.546 558.25,147.225C558.25,138.262 568.333,135.483 578.079,132.796C584.429,131.046 590.442,129.388 593.683,126.113C593.604,127.592 593.517,129.704 593.413,132.279C593.108,139.721 592.642,150.962 591.8,159.462L591.754,159.917L597.008,159.917L597.008,159.5C597.008,147.271 597.604,136.992 598.038,129.483C598.3,124.921 598.508,121.317 598.508,118.712C598.508,106.758 587.362,105.379 578.975,105.379Z" style="fill:rgb(35,31,32);fill-rule:nonzero;"/>
        <path d="M637.808,105.379C627.904,105.379 620.671,108.912 616.779,115.612L617.662,106.45L612.729,106.45L612.729,106.862C612.729,119.138 611.979,131.667 611.258,143.779C610.95,148.929 610.633,154.25 610.379,159.479L610.354,159.917L615.258,159.917L615.371,154.725C615.633,142.687 615.858,132.296 617.079,125.621C618.992,114.658 625.933,109.096 637.704,109.096C648.692,109.096 654.262,113.733 654.262,122.879C654.262,128.996 653.325,149.783 652.233,159.454L652.179,159.917L657.329,159.917L657.338,159.508C657.504,150.842 657.9,143.583 658.246,137.179C658.562,131.383 658.829,126.383 658.829,122.025C658.829,111.133 651.563,105.379 637.808,105.379Z" style="fill:rgb(35,31,32);fill-rule:nonzero;"/>
        <path d="M698.237,105.379C688.338,105.379 681.104,108.908 677.213,115.608L678.092,106.45L673.163,106.45L673.163,106.862C673.163,119.1 672.417,131.592 671.696,143.667C671.387,148.858 671.071,154.217 670.812,159.479L670.792,159.917L675.692,159.917L675.804,154.725C676.067,142.687 676.292,132.296 677.512,125.621C679.421,114.658 686.358,109.096 698.133,109.096C709.117,109.096 714.692,113.733 714.692,122.879C714.692,129.688 713.692,150.329 712.667,159.454L712.612,159.917L717.758,159.917L717.767,159.508C717.937,150.838 718.329,143.575 718.675,137.171C718.996,131.379 719.263,126.383 719.263,122.025C719.263,111.133 711.996,105.379 698.237,105.379Z" style="fill:rgb(35,31,32);fill-rule:nonzero;"/>
        <path d="M774.05,110.788C774.004,112.621 773.958,114.475 773.917,116.317C773.692,126.45 773.479,136.021 772.146,141.246C769.429,151.425 762.496,157.267 753.121,157.267C741.783,157.267 734.742,149.325 734.742,136.546C734.742,123.271 742.15,109.092 762.937,109.092C766.921,109.092 770.658,109.658 774.05,110.788ZM774.292,88.904C774.392,91.817 774.487,94.571 774.487,97.354C774.487,100.379 774.387,103.404 774.287,106.371C770.083,105.692 766.262,105.375 762.3,105.375C742.592,105.375 729.854,117.608 729.854,136.546C729.854,148.363 736.246,160.983 754.188,160.983C760.979,160.983 769.238,157.125 773.188,148.558L772.537,159.913L777.454,159.913L777.454,159.496C777.454,134.067 778.558,106.742 779.479,88.304L779.504,87.867L774.254,87.867L774.292,88.904Z" style="fill:rgb(35,31,32);fill-rule:nonzero;"/>
        <path d="M819.004,105.925C817.671,105.542 816.254,105.375 814.404,105.375C806.429,105.375 801.121,108.412 797.817,114.896L798.292,106.446L793.458,106.446L793.487,106.892C793.596,108.583 793.596,110.421 793.596,112.2C793.596,124.413 792.95,136.817 792.321,148.808C792.133,152.367 791.946,155.925 791.779,159.475L791.758,159.913L796.775,159.913L796.775,159.496C796.775,138.988 797.154,125.967 799.1,120.125C801.533,112.929 808.125,109.092 811.946,109.092C814.533,109.092 816.488,109.612 818.375,110.117L819.425,110.392L819.296,106.004L819.004,105.925Z" style="fill:rgb(35,31,32);fill-rule:nonzero;"/>
        <path d="M868.55,111.629C868.292,123.671 868.067,134.071 866.842,140.742C864.933,151.708 857.996,157.271 846.221,157.271C835.233,157.271 829.658,152.633 829.658,143.483C829.658,136.679 830.658,116.038 831.683,106.908L831.738,106.45L826.596,106.45L826.587,106.854C826.417,115.529 826.021,122.792 825.675,129.196C825.358,134.983 825.087,139.983 825.087,144.342C825.087,155.233 832.358,160.988 846.113,160.988C856.012,160.988 863.25,157.458 867.138,150.758L866.258,159.917L871.196,159.917L871.196,159.5C871.196,147.229 871.946,134.7 872.662,122.587C872.975,117.433 873.292,112.112 873.542,106.883L873.567,106.45L868.663,106.45L868.55,111.629Z" style="fill:rgb(35,31,32);fill-rule:nonzero;"/>
        <path d="M924.071,107.312C919.958,106.013 915.375,105.375 910.067,105.375C890.871,105.375 884.029,120.429 884.029,134.512C884.029,151.087 893.362,160.983 909,160.983C913.483,160.983 917.667,160.562 921.788,159.692L922.062,159.638L922.992,154.738L922.333,154.937C917.675,156.337 913.608,157.267 908.896,157.267C896.387,157.267 888.917,148.842 888.917,134.729C888.917,118.437 896.587,109.092 909.963,109.092C915.063,109.092 919.454,110.296 924.254,111.746L924.867,111.925L924.329,107.396L924.071,107.312Z" style="fill:rgb(35,31,32);fill-rule:nonzero;"/>
        <path d="M971.763,159.212C962.071,149.196 952.667,138.979 944.708,130.262C949.304,125.796 954.033,121.329 958.608,117.008C962.079,113.729 965.542,110.458 968.975,107.167L969.721,106.45L963.162,106.45L963.037,106.583C957.233,112.963 950.871,119 944.717,124.833C943.012,126.454 941.308,128.067 939.617,129.692C940.083,114.904 940.692,101.213 941.446,88.308L941.475,87.871L936.35,87.871L936.346,88.283C936.062,112.392 935.158,132.046 934.279,151.054L933.871,159.917L938.879,159.917L938.883,159.508C939.067,149.475 939.3,139.929 939.579,130.8C942.188,133.654 944.813,136.5 947.437,139.346C953.558,145.992 959.892,152.863 965.917,159.775L966.042,159.917L972.442,159.917L971.763,159.212Z" style="fill:rgb(35,31,32);fill-rule:nonzero;"/>
    </g>
</svg>