<svg viewBox="0 0 1540 236"
    xmlns="http://www.w3.org/2000/svg">
    <style>
        path {
        fill: #000;
        }

        @media (prefers-color-scheme: dark) {
        path {
        fill: #FFF;
        }
        }
    </style>
    <g>
        <path d="M1473,174l17,0l20,30l0,-30l18,0l0,56l-16,0l-22,-30l0,30l-17,0l0,-56Z" fill="none"
        />
        <path d="M1388,174l46,0l0,11l-30,0l0,11l28,0l0,10l-28,0l0,12l30,0l0,12l-46,0l0,-56Z"
        />
        <path
            d="M1332,191l14,-4c-2.762,-8.184 -12.117,-14.982 -26,-15c-15.93,-0.02 -28.723,10.339 -29,30c-0.262,18.607 9.913,29.504 30,29.046c12.425,-0.098 20.93,-3.211 27,-11.046l0,-21l-26,0l0,10l12,0c-0.251,6.434 -5.462,10.128 -13,10c-7.152,-0.121 -12.764,-5.935 -13,-17c-0.222,-10.379 5.364,-17.032 12,-17c6.604,0.031 10.163,2.585 12,6Z"
        />
        <rect x="1232" y="174" width="19" height="56" />
        <path d="M1152,174l18,0l0,43l27,0l0,13l-45,0l0,-56Z" />
        <path
            d="M1049,174l23,0l9,34l10,-34l21,0l0,56l-14,0.046l0,-42.046l-11,42l-12,0l-13,-42l0,42l-13,0l0,-56Z"
        />
        <g>
            <path
                d="M954,174l17,0l0,37c0.342,6.08 2.524,8.062 9,8c6.386,-0.061 9.714,-2.397 10,-8l0,-37l17,0l0,37c-1.544,13.543 -10.713,20.691 -27,20c-13.726,0.462 -23.46,-4.701 -26,-20l0,-37Z"
            />
            <g>
                <rect x="985" y="160" width="10" height="10" />

                <rect x="966" y="160" width="10" height="10" />
            </g>
        </g>
        <path
            d="M899,191l14,-4c-2.762,-8.184 -12.117,-14.982 -26,-15c-15.93,-0.02 -28.723,10.339 -29,30c-0.262,18.607 9.913,29.504 30,29.046c12.425,-0.098 20.93,-3.211 27,-11.046l0,-21l-26,0l0,10l12,0c-0.251,6.434 -5.462,10.128 -13,10c-7.152,-0.121 -12.764,-5.935 -13,-17c-0.222,-10.379 5.364,-17.032 12,-17c6.604,0.031 10.163,2.585 12,6Z"
        />
    </g>
    <g>
        <rect x="716" y="174" width="19" height="56" />
        <g>
            <path
                d="M626,174l40,0c6.881,2.536 10.382,10.077 10,16c-0.347,7.421 -4.111,12.579 -12,15c8.613,7.592 13.996,15.929 16,25.046l-18,-0c-2.511,-8.76 -7.422,-16.32 -14,-23.046l-6,0l0,23.046l-16,-0l0,-56.046Zm16,10l0,13l14,0c3.144,-1.298 4.414,-3.668 4,-7c-0.112,-2.407 -1.564,-4.368 -4,-6l-14,0Z"
            />
        </g>
        <path
            d="M532,174l16,0l0,36c0.532,6.488 5.881,9 10,9c4.119,0 9.545,-2.242 10,-9l0,-36l16,0l0,36c-0.544,13.543 -10.713,20.691 -26,21c-14.195,-0.194 -25.277,-7.101 -26,-21l0,-36Z"
        />
        <path
            d="M427,174l23,0l8,32l10,-32l24,0l0,56l-15,0.046l0,-40.046l-13,40l-12,0l-11,-40l0,40l-14,0l0,-56Z"
        />
    </g>
    <path
        d="M147,1.004l70,0.325l0,154.671c0.42,16.327 17.065,27.707 39,27.774c20.499,0.063 39.955,-14.347 40,-28.119l0,-154.651l72,0l0,154.651c0.03,47.978 -48.729,80.74 -112,80.342c-60.957,0.251 -109.591,-32.421 -109,-80.342l0,-154.651Z"
        style="fill:rgb(228,51,18);stroke:rgb(228,41,39);stroke-width:1px;" />
    <g>
        <path
            d="M1453.05,2.329l22.949,0l28,41.671l0,-41.671l24,0l-0.341,76.026l-23.659,0l-28,-39.877l0,39.877l-23.322,0l0.373,-76.026Z"
        />
        <path d="M1375,2.329l22.454,0l-0.373,76.026l-22.713,0l0.632,-76.026Z"
        />
        <path
            d="M1257,2.329l63.529,0l0.128,13.671l-42.033,0l0.238,14.403l38.138,-0.372l0,15.458l-38.138,0l-0.068,15.734l42.206,0.067l0,17.065l-64,0l0,-76.026Z"
        />
        <g>
            <path
                d="M1136,2.329l52,0c9.572,3.191 15.376,9.671 16,20.59c-0.827,10.387 -6.125,17.608 -16.713,21.081c11.324,8.823 18.859,21.464 22.267,34.355l-24.86,0c-2.97,-10.926 -8.723,-21.869 -18.607,-30.355l-7.168,0l-0.305,30.355l-22.614,0l-0,-76.026Zm23,31.106c-0,-0 16.767,0.174 17,0.153c5.362,-0.487 6.334,-6.245 6.334,-9.588c0,-3.343 -2.175,-7.701 -6.334,-8l-17.153,-0l0.153,17.435Z"
            />
        </g>
        <path
            d="M1019,2.329l64.529,0l0.128,14.671l-42.033,0l0.238,13.403l38.138,-0.372l0,15.458l-38.138,0l-0.068,15.734l42.206,0.067l0,17.065l-65,0l0,-76.026Z"
        />
        <path
            d="M913.409,2.329l17.501,53.671l17.09,-53.671l22.379,0l-26.379,76.026l-24,0l-30.421,-76.026l23.83,0Z"
        />
        <g>
            <path
                d="M775.223,2.329l52,0c9.572,1.191 16.153,9.671 16.777,20.59c-0.827,10.387 -5.902,18.608 -17.49,21.081c11.324,8.823 17.859,21.464 22.267,34.355l-24.777,0c-2.97,-10.926 -8.806,-21.869 -18.69,-30.355l-7.168,0l-0.305,30.355l-22.614,0l0,-76.026Zm23,31.106c-0,-0 16.769,0.186 17,0.153c3.362,-0.487 6.62,-4.645 6.334,-8.978c0.315,-4.146 -2.175,-8.311 -6.334,-8.61l-17.153,-0l0.153,17.435Z"
            />
        </g>
        <path
            d="M648,2.329l24,0l0,49.671c-0.05,5.854 8.617,9.308 13.654,9.308c5.037,0 12.904,-3.794 13.032,-9.308l0.373,-49.671l23.341,0l0.372,49.671c0.151,16.263 -15.41,28.241 -37.118,28c-20.728,-0.23 -36.991,-14.251 -37.654,-28l0,-49.671Z"
        />
        <path
            d="M527.25,2.329l72.119,0l-0.373,17.671l-24.458,0l-0.372,58.355l-22.341,0l0.175,-58.122c-10.784,-0.623 -16.731,-0.279 -24.867,-0.373l0.117,-17.531Z"
        />
        <path
            d="M427.344,2.329l23.53,0l0.045,56.373l36.862,-0l0.219,19.653l-60.912,0l0.256,-76.026Z"
        />
        <path
            d="M11.004,2.329l21.979,0l-0.234,28.263l26.421,-28.263l30.397,0l-26.655,28.964l29.088,47.062l-27.218,0l-17.069,-33.033l-14.496,13.094l0.233,19.939l-21.978,0l-0.468,-76.026Z"
        />
    </g>
    <rect
        x="-4" y="119.864" width="1544" height="4.136" />
</svg>