<svg xmlns="http://www.w3.org/2000/svg" width="300" height="200" viewBox="0 0 300 200"><rect width="100%" height="100%" fill="#DDDDDD"/><path fill="#999999" d="M72.42 106.98h-3.57q-.19-.45-.33-.95-.14-.5-.2-1.03-.55.97-1.45 1.6-.9.64-2.14.64-2.08 0-3.2-1.07t-1.12-2.91q0-1.94 1.49-3.01 1.5-1.07 4.37-1.07h1.99v-1.05q0-.95-.5-1.48-.5-.52-1.48-.52-.87 0-1.34.42-.47.42-.47 1.16l-3.44-.01-.01-.07q-.09-1.67 1.45-2.89 1.54-1.21 4.04-1.21 2.37 0 3.85 1.2 1.47 1.2 1.47 3.42v5.46q0 .93.14 1.75.14.81.45 1.62Zm-6.82-2.38q.94 0 1.67-.46.73-.47.99-1.08v-1.87h-1.99q-1.14 0-1.72.57-.59.57-.59 1.37 0 .66.44 1.07.44.4 1.2.4Zm8.38-3.86v-.25q0-3.13 1.35-5.05 1.35-1.91 3.8-1.91.99 0 1.78.43.8.42 1.4 1.22v-7.24h3.57v19.04h-3.06l-.29-1.61q-.63.91-1.47 1.39-.85.48-1.95.48-2.43 0-3.78-1.79-1.35-1.78-1.35-4.71Zm3.55-.25v.25q0 1.74.59 2.73.59 1 1.9 1 .77 0 1.35-.32.57-.31.94-.91v-5.62q-.37-.63-.94-.97-.56-.35-1.32-.35-1.31 0-1.91 1.16-.61 1.16-.61 3.03Zm10.56.25v-.25q0-3.13 1.35-5.05 1.35-1.91 3.8-1.91.99 0 1.79.43.79.42 1.39 1.22v-7.24h3.57v19.04h-3.06l-.29-1.61q-.62.91-1.47 1.39-.85.48-1.95.48-2.43 0-3.78-1.79-1.35-1.78-1.35-4.71Zm3.55-.25v.25q0 1.74.59 2.73.59 1 1.91 1 .76 0 1.34-.32.57-.31.94-.91v-5.62q-.37-.63-.94-.97-.56-.35-1.32-.35-1.31 0-1.91 1.16-.61 1.16-.61 3.03Zm22.88 4.01q.95 0 1.53-.55.57-.56.57-1.49h3.24l.03.08q.05 2-1.51 3.35-1.55 1.35-3.86 1.35-2.95 0-4.55-1.87-1.6-1.87-1.6-4.8v-.36q0-2.92 1.59-4.8t4.55-1.88q2.44 0 3.94 1.39 1.49 1.39 1.44 3.66l-.02.07h-3.25q0-1.02-.56-1.7-.56-.68-1.55-.68-1.42 0-2 1.1-.58 1.1-.58 2.84v.36q0 1.77.58 2.85t2.01 1.08Zm6.85-3.99v-.26q0-2.95 1.65-4.84 1.64-1.88 4.56-1.88 2.93 0 4.59 1.88 1.66 1.88 1.66 4.84v.26q0 2.98-1.65 4.85-1.66 1.88-4.57 1.88-2.93 0-4.59-1.88-1.65-1.87-1.65-4.85Zm3.55-.26v.26q0 1.81.64 2.9.63 1.09 2.05 1.09 1.38 0 2.02-1.1.64-1.1.64-2.89v-.26q0-1.75-.65-2.86-.65-1.12-2.04-1.12-1.38 0-2.02 1.12-.64 1.12-.64 2.86Zm13.45-6.48 2.23 8.29.23 1.22h.07l.24-1.22 2.18-8.29h3.72l-4.49 13.21h-3.41l-4.49-13.21h3.72Zm15.88 13.47q-2.85 0-4.56-1.83-1.71-1.84-1.71-4.66v-.48q0-2.95 1.62-4.85 1.62-1.9 4.34-1.89 2.67 0 4.15 1.61 1.47 1.61 1.47 4.36v1.94h-7.88l-.03.07q.1 1.31.88 2.15.77.84 2.1.84 1.19 0 1.97-.24.78-.23 1.71-.75l.96 2.2q-.8.66-2.11 1.09-1.31.44-2.91.44Zm-.31-10.97q-.99 0-1.57.76-.57.76-.7 1.99l.03.06h4.37v-.32q0-1.13-.53-1.81-.53-.68-1.6-.68Zm15.02-2.6-.37 3.17-1.31-.04q-.79 0-1.31.33-.51.33-.78.93v8.92h-3.55V93.77h3.31l.16 1.96q.46-1.04 1.2-1.62.74-.58 1.7-.58.27 0 .5.04.22.04.45.1Zm19.57 6.82v.25q0 2.93-1.35 4.71-1.36 1.79-3.79 1.79-1.03 0-1.84-.39-.81-.38-1.38-1.13v6.34h-3.55V93.77h3.21l.21 1.56q.58-.86 1.41-1.33.82-.47 1.92-.47 2.45 0 3.81 1.91 1.35 1.92 1.35 5.05Zm-3.56.25v-.25q0-1.87-.62-3.03-.63-1.16-1.91-1.16-.8 0-1.37.33-.57.33-.9.94v5.78q.33.57.9.86.57.29 1.4.29 1.29 0 1.89-1.01.61-1.01.61-2.75Zm9.24-12.8v7.5q.62-.9 1.52-1.41.91-.5 2.01-.5 2.06 0 3.24 1.37 1.18 1.37 1.18 4.24v7.84h-3.57v-7.86q0-1.54-.54-2.18-.55-.64-1.62-.64-.73 0-1.29.26-.57.26-.93.74v9.68h-3.57V87.94h3.57Zm10.08 12.57v-.26q0-2.95 1.65-4.84 1.65-1.88 4.56-1.88 2.93 0 4.59 1.88 1.66 1.88 1.66 4.84v.26q0 2.98-1.65 4.85-1.65 1.88-4.57 1.88-2.93 0-4.58-1.88-1.66-1.87-1.66-4.85Zm3.55-.26v.26q0 1.81.64 2.9.63 1.09 2.05 1.09 1.38 0 2.02-1.1.64-1.1.64-2.89v-.26q0-1.75-.65-2.86-.64-1.12-2.04-1.12-1.37 0-2.02 1.12-.64 1.12-.64 2.86Zm11.78-9.71h3.57v3.23h2.22v2.5h-2.22V103q0 .77.32 1.1.31.33.85.33.28 0 .48-.03.2-.03.47-.11l.31 2.58q-.54.18-1.05.27-.52.1-1.11.1-1.85 0-2.84-1.02-1-1.01-1-3.21v-6.74h-1.93v-2.5h1.93v-3.23Zm7.51 9.97v-.26q0-2.95 1.65-4.84 1.65-1.88 4.56-1.88 2.93 0 4.59 1.88 1.66 1.88 1.66 4.84v.26q0 2.98-1.65 4.85-1.65 1.88-4.57 1.88-2.93 0-4.59-1.88-1.65-1.87-1.65-4.85Zm3.55-.26v.26q0 1.81.64 2.9.63 1.09 2.05 1.09 1.38 0 2.02-1.1.64-1.1.64-2.89v-.26q0-1.75-.65-2.86-.64-1.12-2.04-1.12-1.38 0-2.02 1.12-.64 1.12-.64 2.86Z"/></svg>